<svg xmlns="http://www.w3.org/2000/svg" viewBox="0 0 500 500" role="img" aria-label="Daphne symbol">
<path fill="#73AACE" d="M 292.00 61.00 C 278.17 55.83, 255.33 47.50, 236.00 44.00 C 216.67 40.50, 189.00 38.50, 176.00 40.00 C 163.00 41.50, 165.17 44.17, 158.00 53.00 C 150.83 61.83, 138.83 81.83, 133.00 93.00 C 127.17 104.17, 125.67 110.83, 123.00 120.00 C 120.33 129.17, 118.17 135.17, 117.00 148.00 C 115.83 160.83, 113.17 167.67, 116.00 197.00 C 118.83 226.33, 130.83 294.33, 134.00 324.00 C 137.17 353.67, 135.83 359.50, 135.00 375.00 C 134.17 390.50, 132.17 402.50, 129.00 417.00 C 125.83 431.50, 110.67 457.33, 116.00 462.00 C 121.33 466.67, 149.17 450.67, 161.00 445.00 C 172.83 439.33, 180.00 434.33, 187.00 428.00 C 194.00 421.67, 197.50 417.67, 203.00 407.00 C 208.50 396.33, 216.00 377.33, 220.00 364.00 C 224.00 350.67, 226.00 339.50, 227.00 327.00 C 228.00 314.50, 228.00 302.67, 226.00 289.00 C 224.00 275.33, 219.67 258.50, 215.00 245.00 C 210.33 231.50, 198.17 211.17, 198.00 208.00 C 197.83 204.83, 209.17 219.33, 214.00 226.00 C 218.83 232.67, 223.50 240.67, 227.00 248.00 C 230.50 255.33, 232.83 261.83, 235.00 270.00 C 237.17 278.17, 239.17 287.17, 240.00 297.00 C 240.83 306.83, 240.67 319.33, 240.00 329.00 C 239.33 338.67, 238.50 344.67, 236.00 355.00 C 233.50 365.33, 229.00 380.50, 225.00 391.00 C 221.00 401.50, 208.83 415.67, 212.00 418.00 C 215.17 420.33, 235.00 409.83, 244.00 405.00 C 253.00 400.17, 258.17 396.17, 266.00 389.00 C 273.83 381.83, 283.83 372.17, 291.00 362.00 C 298.17 351.83, 305.17 338.50, 309.00 328.00 C 312.83 317.50, 313.83 312.17, 314.00 299.00 C 314.17 285.83, 312.67 262.33, 310.00 249.00 C 307.33 235.67, 303.33 228.33, 298.00 219.00 C 292.67 209.67, 279.33 196.00, 278.00 193.00 C 276.67 190.00, 284.33 195.67, 290.00 201.00 C 295.67 206.33, 305.83 215.00, 312.00 225.00 C 318.17 235.00, 324.17 248.17, 327.00 261.00 C 329.83 273.83, 330.67 287.17, 329.00 302.00 C 327.33 316.83, 315.67 345.00, 317.00 350.00 C 318.33 355.00, 331.00 338.67, 337.00 332.00 C 343.00 325.33, 348.33 317.67, 353.00 310.00 C 357.67 302.33, 361.83 294.33, 365.00 286.00 C 368.17 277.67, 370.67 267.50, 372.00 260.00 C 373.33 252.50, 373.83 248.67, 373.00 241.00 C 372.17 233.33, 372.33 224.83, 367.00 214.00 C 361.67 203.17, 343.17 181.00, 341.00 176.00 C 338.83 171.00, 349.17 179.83, 354.00 184.00 C 358.83 188.17, 365.33 194.00, 370.00 201.00 C 374.67 208.00, 379.33 217.67, 382.00 226.00 C 384.67 234.33, 383.50 252.33, 386.00 251.00 C 388.50 249.67, 395.00 228.33, 397.00 218.00 C 399.00 207.67, 398.50 197.33, 398.00 189.00 C 397.50 180.67, 396.83 176.67, 394.00 168.00 C 391.17 159.33, 386.00 146.17, 381.00 137.00 C 376.00 127.83, 370.17 120.33, 364.00 113.00 C 357.83 105.67, 351.50 99.33, 344.00 93.00 C 336.50 86.67, 327.67 80.33, 319.00 75.00 C 310.33 69.67, 305.83 66.17, 292.00 61.00 Z"/>
</svg>
